<svg xmlns="http://www.w3.org/2000/svg" viewBox="0 0 16 16" fill="none">
    <path
        d="M8 2.25C9.4 4.2 12.2 5.45 12.2 8.3C12.2 10.9 10.28 13.1 8 13.1C5.72 13.1 3.8 10.9 3.8 8.3C3.8 6.7 4.63 5.39 5.73 4.28C6.54 3.48 7.19 2.86 8 2.25Z"
        stroke="currentColor"
        stroke-width="1.4"
        stroke-linejoin="round"
    />
    <path
        d="M8 6.4C8.62 7.25 9.8 7.84 9.8 9.1C9.8 10.12 9 11 8 11C7 11 6.2 10.12 6.2 9.1C6.2 8.37 6.59 7.76 7.08 7.27C7.44 6.92 7.7 6.67 8 6.4Z"
        stroke="currentColor"
        stroke-width="1.4"
        stroke-linejoin="round"
    />
</svg>
